<svg xmlns="http://www.w3.org/2000/svg">
  <symbol id="img-pc" fill="currentColor" width="40px" height="40px">
    <path d="M456,232V56c0-22.056-17.944-40-40-40H64c-22.056,0-40,17.944-40,40v120c-13.232,0-24,10.768-24,24v240
      c0,13.232,10.768,24,24,24h176c13.232,0,24-10.768,24-24h67.048c7.544,0,14.496-3.44,19.072-9.432s6.064-13.608,4.08-20.88
      L298.472,352H344v88c0,13.232,10.768,24,24,24h88c13.232,0,24-10.768,24-24V256C480,242.768,469.232,232,456,232z M208,440
      c0,4.408-3.592,8-8,8H24c-4.408,0-8-3.592-8-8v-16h192V440z M208,408H16V232h192V408z M208,216H16v-16c0-4.408,3.592-8,8-8h176
      c4.408,0,8,3.592,8,8V216z M298.768,413.896c0.664,2.424,0.168,4.96-1.36,6.96s-3.84,3.144-6.36,3.144H224v-16h73.16
      L298.768,413.896z M224,392v-40h57.888l10.912,40H224z M344,336H224v-48h120V336z M344,256v16H224v-72c0-13.232-10.768-24-24-24
      H40V56c0-13.232,10.768-24,24-24h352c13.232,0,24,10.768,24,24v176h-72C354.768,232,344,242.768,344,256z M464,440
      c0,4.408-3.592,8-8,8h-88c-4.408,0-8-3.592-8-8v-16h104V440z M464,408H360V288h104V408z M464,272H360v-16c0-4.408,3.592-8,8-8h88
      c4.408,0,8,3.592,8,8V272z"/>
      <g>
        <rect x="41.372" y="327.994" transform="matrix(0.7071 -0.7071 0.7071 0.7071 -218.8385 143.6649)" width="45.256" height="16"/>
        <rect x="60.114" y="319.995" transform="matrix(0.7071 -0.7071 0.7071 0.7071 -194.4378 186.5751)" width="135.767" height="16"/>
        <rect x="86.054" y="272.005" transform="matrix(0.7071 -0.7071 0.7071 0.7071 -162.8477 166.8601)" width="67.879" height="16"/>
        <rect x="375.705" y="324.008" transform="matrix(0.7071 -0.7071 0.7071 0.7071 -116.4408 382.9028)" width="56.559" height="16"/>
        <rect x="391.702" y="356.042" transform="matrix(0.7071 -0.7071 0.7071 0.7071 -134.4066 403.5971)" width="56.559" height="16"/>
        <rect x="206.052" y="128.002" transform="matrix(0.7071 -0.7071 0.7071 0.7071 -25.876 209.5337)" width="67.879" height="16"/>
        <rect x="278.057" y="112.001" transform="matrix(0.7071 -0.7071 0.7071 0.7071 6.5281 255.7627)" width="67.879" height="16"/>
        <rect x="233.364" y="168.01" transform="matrix(0.7071 -0.7071 0.7071 0.7071 -49.4797 232.5655)" width="45.256" height="16"/>
        <rect x="273.302" y="72.062" transform="matrix(0.7071 -0.7071 0.7071 0.7071 30.0796 232.7427)" width="45.368" height="16"/>
        <rect x="56" y="48" width="16" height="16"/>
        <rect x="88" y="48" width="16" height="16"/>
        <rect x="120" y="48" width="16" height="16"/>
      </g>
  </symbol>

  <symbol id="img-web" fill="currentColor" width="40px" height="40px">
    <path d="M59,0H1C0.4,0,0,0.4,0,1v11c0,0.6,0.4,1,1,1h58c0.6,0,1-0.4,1-1V1C60,0.4,59.6,0,59,0z M58,11H2V2h56V11z"/>
    <rect x="5" y="4" width="6" height="2"/>
    <rect x="5" y="7" width="6" height="2"/>
    <path d="M1,39h33c0.6,0,1-0.4,1-1V18c0-0.6-0.4-1-1-1H1c-0.6,0-1,0.4-1,1v20C0,38.6,0.4,39,1,39z M25.9,31.2l7.1-3.6v8.5
      L25.9,31.2z M30.9,37H4.3L18,28.2L30.9,37z M33,19v6.4l-9,4.5l-5.5-3.8c-0.3-0.2-0.8-0.2-1.1,0L2,36.1V19H33z"/>
    <path d="M8.5,28c1.9,0,3.5-1.6,3.5-3.5S10.4,21,8.5,21S5,22.6,5,24.5S6.6,28,8.5,28z M8.5,23c0.8,0,1.5,0.7,1.5,1.5S9.3,26,8.5,26
      S7,25.3,7,24.5S7.7,23,8.5,23z"/>
    <rect x="38" y="17" width="15" height="2"/>
    <rect x="38" y="22" width="22" height="2"/>
    <rect x="38" y="27" width="22" height="2"/>
    <rect x="38" y="32" width="22" height="2"/>
    <rect x="38" y="37" width="22" height="2"/>
    <path d="M23,43H1c-0.6,0-1,0.4-1,1v15c0,0.6,0.4,1,1,1h22c0.6,0,1-0.4,1-1V44C24,43.4,23.6,43,23,43z M22,58H2V45h20V58z"/>
    <path d="M59,43H28c-0.6,0-1,0.4-1,1v15c0,0.6,0.4,1,1,1h31c0.6,0,1-0.4,1-1V44C60,43.4,59.6,43,59,43z M48,45v13h-8V45H48z M29,45
      h9v13h-9V45z M58,58h-8V45h8V58z"/>
    <rect x="10" y="50" width="4" height="2"/>
    <rect x="16" y="50" width="4" height="2"/>
    <rect x="4" y="50" width="4" height="2"/>
  </symbol>

  <symbol id="img-frontend" fill="currentColor" width="40px" height="40px">
    <path d="M503.983,4.276H8.017C3.589,4.276,0,7.865,0,12.292v102.614v384.802c0,4.427,3.589,8.017,8.017,8.017h495.967
      c4.428,0,8.017-3.589,8.017-8.017V114.906V12.292C512,7.865,508.412,4.276,503.983,4.276z M495.967,491.691H16.033V122.923
      h479.933V491.691z M495.967,106.889H16.033v-86.58h479.933V106.889z"/>
  </g>
  <g>
    <path d="M427.023,38.48H332.96c-4.428,0-8.017,3.589-8.017,8.017c0,4.427,3.588,8.017,8.017,8.017h94.063
      c4.428,0,8.017-3.589,8.017-8.017C435.04,42.07,431.451,38.48,427.023,38.48z"/>
  </g>
  <g>
    <path d="M469.779,38.48h-17.102c-4.428,0-8.017,3.589-8.017,8.017c0,4.427,3.588,8.017,8.017,8.017h17.102
      c4.428,0,8.017-3.589,8.017-8.017C477.795,42.07,474.207,38.48,469.779,38.48z"/>
  </g>
  <g>
    <path d="M264.551,29.929c-18.566,0-33.67,15.105-33.67,33.67s15.105,33.67,33.67,33.67s33.67-15.104,33.67-33.67
      S283.117,29.929,264.551,29.929z M264.551,81.236c-9.725,0-17.637-7.912-17.637-17.637s7.912-17.637,17.637-17.637
      s17.637,7.912,17.637,17.637S274.276,81.236,264.551,81.236z"/>
  </g>
  <g>
    <path d="M170.489,29.929c-18.566,0-33.67,15.105-33.67,33.67s15.105,33.67,33.67,33.67s33.67-15.104,33.67-33.67
      S189.054,29.929,170.489,29.929z M170.489,81.236c-9.725,0-17.637-7.912-17.637-17.637s7.912-17.637,17.637-17.637
      s17.637,7.912,17.637,17.637S180.213,81.236,170.489,81.236z"/>
  </g>
  <g>
    <path d="M76.426,29.929c-18.566,0-33.67,15.105-33.67,33.67s15.105,33.67,33.67,33.67s33.67-15.104,33.67-33.67
      S94.992,29.929,76.426,29.929z M76.426,81.236c-9.725,0-17.637-7.912-17.637-17.637s7.912-17.637,17.637-17.637
      s17.637,7.912,17.637,17.637S86.151,81.236,76.426,81.236z"/>
  </g>
  <g>
    <path d="M168.877,232.063c0.174-6.422-2.163-12.527-6.582-17.191s-10.389-7.327-16.81-7.501
      c-6.403-0.175-12.526,2.164-17.19,6.582l-81.236,76.96c-4.866,4.61-7.602,11.098-7.507,17.801
      c0.095,6.703,3.015,13.112,8.011,17.581l81.237,72.686c4.417,3.951,10.109,6.126,16.028,6.126c0.001,0,0.002,0,0.003,0
      c6.837,0,13.371-2.92,17.929-8.014c8.842-9.883,7.996-25.117-1.887-33.96l-61.769-55.267l62.274-58.995
      C166.039,244.454,168.703,238.484,168.877,232.063z M150.348,237.232l-68.594,64.983c-1.627,1.541-2.534,3.693-2.502,5.935
      c0.032,2.24,1,4.365,2.67,5.86l68.258,61.073c3.294,2.947,3.577,8.025,0.63,11.32c-1.541,1.723-3.665,2.672-5.982,2.672
      c-1.971,0-3.867-0.725-5.339-2.043l-81.236-72.685c-1.665-1.49-2.639-3.626-2.671-5.86c-0.031-2.234,0.881-4.397,2.502-5.933
      l81.236-76.96c1.501-1.422,3.449-2.198,5.508-2.198c0.074,0,0.149,0.001,0.222,0.003c2.141,0.058,4.13,0.946,5.603,2.5
      c1.473,1.554,2.252,3.589,2.194,5.73C152.791,233.77,151.903,235.76,150.348,237.232z"/>
  </g>
  <g>
    <path d="M464.942,290.914l-81.236-76.96c-9.626-9.119-24.878-8.709-34.001,0.919c-9.119,9.626-8.707,24.879,0.919,33.999
      l62.274,58.995l-61.769,55.267c-9.882,8.843-10.729,24.076-1.887,33.961c4.558,5.092,11.092,8.013,17.927,8.013
      c0.001,0,0.002,0,0.003,0c5.921,0,11.614-2.176,16.029-6.127l81.236-72.685c4.997-4.471,7.917-10.88,8.01-17.583
      C472.543,302.011,469.807,295.523,464.942,290.914z M453.746,314.348l-81.236,72.685c-1.472,1.317-3.367,2.043-5.339,2.043h-0.001
      c-2.314,0-4.438-0.949-5.979-2.671c-2.948-3.294-2.666-8.373,0.628-11.321l68.257-61.073c1.671-1.494,2.639-3.619,2.67-5.86
      c0.032-2.241-0.875-4.393-2.502-5.935l-68.594-64.983c-3.209-3.04-3.347-8.125-0.307-11.333c1.574-1.661,3.696-2.499,5.822-2.499
      c1.98,0,3.965,0.727,5.511,2.193l81.236,76.96c1.623,1.536,2.533,3.699,2.502,5.933v0.002h0.001
      C456.385,310.722,455.413,312.858,453.746,314.348z"/>
  </g>
  <g>
    <path d="M317.703,233.713c-1.67-6.204-5.656-11.386-11.222-14.59c0-0.001-0.001-0.001-0.001-0.001
      c-11.495-6.614-26.226-2.647-32.842,8.843l-81.236,141.094c-6.617,11.492-2.65,26.225,8.843,32.843
      c3.648,2.099,7.792,3.21,11.983,3.21c8.585,0,16.577-4.619,20.857-12.053l81.236-141.093
      C318.526,246.398,319.373,239.915,317.703,233.713z M301.427,243.964l-81.235,141.094c-1.427,2.479-4.096,4.019-6.963,4.019
      c-1.409,0-2.749-0.36-3.985-1.071c-3.831-2.205-5.153-7.117-2.948-10.948l81.237-141.094c1.481-2.573,4.184-4.014,6.961-4.014
      c1.356,0,2.73,0.344,3.987,1.068c1.856,1.068,3.184,2.795,3.74,4.862C302.778,239.947,302.496,242.108,301.427,243.964z"/>
  </g>
</symbol>
</svg>
